<svg width="192" height="192" viewBox="0 0 192 192" fill="none" xmlns="http://www.w3.org/2000/svg">
  <rect width="192" height="192" rx="24" fill="#7c3aed"/>
  <g transform="translate(48, 48)">
    <!-- Dance figure -->
    <path d="M48 20 C50 15, 54 15, 56 20 C58 25, 54 30, 48 25 C42 30, 38 25, 40 20 C42 15, 46 15, 48 20 Z" fill="white"/>
    <!-- Body -->
    <path d="M48 35 L48 70 M38 50 L58 50 M43 85 L48 70 L53 85" stroke="white" stroke-width="4" stroke-linecap="round"/>
    <!-- Dancing motion lines -->
    <path d="M30 40 Q35 45 25 50 Q35 55 30 60" stroke="white" stroke-width="2" fill="none"/>
    <path d="M66 40 Q71 45 61 50 Q71 55 66 60" stroke="white" stroke-width="2" fill="none"/>
  </g>
</svg>